<svg width="48" height="67" viewBox="0 0 48 67" fill="none" xmlns="http://www.w3.org/2000/svg">
<path d="M24.0634 4.33816C27.3314 7.51611 33.8604 12.6506 42.8825 13.8972C42.4054 26.7171 44.095 33.4802 44.1704 33.7792L44.2959 34.154C44.3103 34.19 45.6878 37.6922 44.8735 41.9475C43.7973 47.5648 39.4817 51.9606 32.0416 55.016L31.8012 55.1277C27.8623 57.1851 25.3584 59.2389 23.7764 61.0621C21.8141 58.5255 18.7039 55.5997 13.9973 53.7693C7.39303 51.2003 3.55817 46.945 2.90169 41.4611C2.72233 39.9514 3.19944 36.0204 3.65862 32.2155C3.98148 29.5564 4.3151 26.8036 4.5411 24.1193C4.86755 20.2315 4.9106 16.6032 4.88549 14.1314C9.59565 13.191 18.1263 10.4815 24.0562 4.33816M23.9557 0C23.9557 0 23.9522 0 23.9486 0.00360312C17.9254 8.35203 5.78591 11.4075 1.97257 11.6561C1.96899 11.6561 1.9654 11.6561 1.9654 11.6633C1.9654 11.8651 2.22369 17.4571 1.68559 23.8815C1.10085 30.8643 -0.298207 38.8272 0.0569392 41.8034C0.745707 47.5576 4.48729 53.1568 12.9642 56.4537C21.0357 59.5956 23.7082 66.355 23.945 66.9928C23.945 66.9964 23.9486 67 23.9522 67C23.9557 67 23.9593 67 23.9593 66.9928C23.9522 66.4884 24.1817 62.3556 33.125 57.6859C53.6517 49.2546 46.9613 33.0874 46.9469 33.0622C46.9398 33.0334 45.0385 25.5966 45.8779 11.285C45.8779 11.2814 45.8779 11.2778 45.8708 11.2778C32.429 10.7373 24.232 0.342296 23.9701 0C23.9701 0 23.9665 0 23.9629 0H23.9557Z" fill="#89513F"/>
<path d="M32.5766 51C32.5766 51 32.4623 50.9022 32.2488 50.7275C30.6189 49.4063 23.1399 43.6979 14.5634 42.7441C18.7945 41.0467 16.8338 37.2668 16.8338 37.2668C16.8338 37.2668 12.9184 29.7041 19.6546 25.6931C22.319 24.7659 23.57 24.3038 23.57 24.3038C23.57 24.3038 19.42 22.4524 15.8925 25.6931C12.3681 28.9339 14.013 33.9875 14.013 33.9875C14.013 33.9875 16.3617 42.282 9 42.513C13.6221 38.5021 11.6644 36.0315 11.6644 36.0315C11.6644 36.0315 7.43324 26.9284 12.8402 21.5252C18.2442 16.1249 25.9998 15.4288 33.4397 20.1358C33.4397 24.5349 30.2279 25.8442 30.2279 25.8442C30.2279 25.8442 34.5373 27.8497 35.0064 31.4755C29.7588 31.6296 28.7394 31.7836 28.7394 31.7836C28.7394 31.7836 30.3061 34.4852 39 33.558C35.3974 38.8042 33.8306 43.5113 33.8306 43.5113L30.0716 43.4343L32.5766 50.997V51Z" fill="#89513F" stroke="#BD7440" stroke-miterlimit="10"/>
</svg>
