<svg width="131" height="67" viewBox="0 0 131 67" fill="none" xmlns="http://www.w3.org/2000/svg">
<path d="M24.0634 4.33816C27.3314 7.51611 33.8604 12.6506 42.8825 13.8972C42.4054 26.7171 44.095 33.4802 44.1704 33.7792L44.2959 34.154C44.3103 34.19 45.6878 37.6922 44.8735 41.9475C43.7973 47.5648 39.4817 51.9606 32.0416 55.016L31.8012 55.1277C27.8623 57.1851 25.3584 59.2389 23.7764 61.0621C21.8141 58.5255 18.7039 55.5997 13.9973 53.7693C7.39303 51.2003 3.55817 46.945 2.90169 41.4611C2.72233 39.9514 3.19944 36.0204 3.65862 32.2155C3.98148 29.5564 4.3151 26.8036 4.5411 24.1193C4.86755 20.2315 4.9106 16.6032 4.88549 14.1314C9.59565 13.191 18.1263 10.4815 24.0562 4.33816M23.9557 0C23.9557 0 23.9522 0 23.9486 0.00360312C17.9254 8.35203 5.78591 11.4075 1.97257 11.6561C1.96899 11.6561 1.9654 11.6561 1.9654 11.6633C1.9654 11.8651 2.22369 17.4571 1.68559 23.8815C1.10085 30.8643 -0.298207 38.8272 0.0569392 41.8034C0.745707 47.5576 4.48729 53.1568 12.9642 56.4537C21.0357 59.5956 23.7082 66.355 23.945 66.9928C23.945 66.9964 23.9486 67 23.9522 67C23.9557 67 23.9593 67 23.9593 66.9928C23.9522 66.4884 24.1817 62.3556 33.125 57.6859C53.6517 49.2546 46.9613 33.0874 46.9469 33.0622C46.9398 33.0334 45.0385 25.5966 45.8779 11.285C45.8779 11.2814 45.8779 11.2778 45.8708 11.2778C32.429 10.7373 24.232 0.342296 23.9701 0C23.9701 0 23.9665 0 23.9629 0H23.9557Z" fill="#89513F"/>
<path d="M32.5766 51C32.5766 51 32.4623 50.9022 32.2488 50.7275C30.6189 49.4063 23.1399 43.6979 14.5634 42.7441C18.7945 41.0467 16.8338 37.2668 16.8338 37.2668C16.8338 37.2668 12.9184 29.7041 19.6546 25.6931C22.319 24.7659 23.57 24.3038 23.57 24.3038C23.57 24.3038 19.42 22.4524 15.8925 25.6931C12.3681 28.9339 14.013 33.9875 14.013 33.9875C14.013 33.9875 16.3617 42.282 9 42.513C13.6221 38.5021 11.6644 36.0315 11.6644 36.0315C11.6644 36.0315 7.43324 26.9284 12.8402 21.5252C18.2442 16.1249 25.9998 15.4288 33.4397 20.1358C33.4397 24.5349 30.2279 25.8442 30.2279 25.8442C30.2279 25.8442 34.5373 27.8497 35.0064 31.4755C29.7588 31.6296 28.7394 31.7836 28.7394 31.7836C28.7394 31.7836 30.3061 34.4852 39 33.558C35.3974 38.8042 33.8306 43.5113 33.8306 43.5113L30.0716 43.4343L32.5766 50.997V51Z" fill="#89513F" stroke="#BD7440" stroke-miterlimit="10"/>
<path d="M58.612 27.812C58.6 26.864 58.588 25.448 58.576 23.564C58.564 21.668 58.552 20.246 58.54 19.298C58.54 19.142 58.498 19.004 58.414 18.884C58.342 18.752 58.3 18.668 58.288 18.632V18.578C58.288 18.434 58.366 18.332 58.522 18.272H61.024C61.192 18.32 61.276 18.416 61.276 18.56V18.596L61.258 18.632C61.246 18.68 61.204 18.764 61.132 18.884C61.06 19.004 61.024 19.142 61.024 19.298C61.012 19.838 61.006 20.642 61.006 21.71C61.006 22.874 61.018 24.656 61.042 27.056V27.362C61.042 27.578 61.108 27.716 61.24 27.776C61.384 27.836 61.762 27.866 62.374 27.866H63.58C64.336 27.866 64.924 27.518 65.344 26.822C65.368 26.774 65.422 26.666 65.506 26.498C65.59 26.33 65.662 26.204 65.722 26.12C65.782 26.036 65.848 25.994 65.92 25.994H65.956C66.148 25.994 66.244 26.186 66.244 26.57V26.66C66.22 27.548 66.154 28.112 66.046 28.352C65.854 28.796 65.446 29.018 64.822 29.018C64.09 29.018 63.04 29.012 61.672 29C60.316 29 59.278 29 58.558 29C58.414 29 58.342 28.94 58.342 28.82C58.342 28.784 58.354 28.742 58.378 28.694C58.51 28.43 58.588 28.136 58.612 27.812ZM69.585 29.18C68.925 29.156 68.331 28.916 67.803 28.46C67.275 28.004 67.011 27.458 67.011 26.822V26.768C67.023 26.468 67.089 26.21 67.209 25.994C67.329 25.766 67.449 25.592 67.569 25.472C67.689 25.352 67.899 25.238 68.199 25.13C68.511 25.022 68.739 24.95 68.883 24.914C69.027 24.878 69.303 24.818 69.711 24.734C70.443 24.578 70.953 24.392 71.241 24.176C71.529 23.96 71.673 23.66 71.673 23.276V23.24C71.661 22.856 71.505 22.538 71.205 22.286C70.905 22.022 70.563 21.89 70.179 21.89C70.071 21.89 69.987 21.896 69.927 21.908C69.651 21.956 69.513 22.088 69.513 22.304C69.513 22.4 69.543 22.52 69.603 22.664C69.627 22.724 69.663 22.808 69.711 22.916C69.759 23.012 69.795 23.096 69.819 23.168C69.855 23.24 69.873 23.306 69.873 23.366C69.873 23.546 69.753 23.714 69.513 23.87C69.237 24.05 68.901 24.14 68.505 24.14C68.397 24.14 68.319 24.134 68.271 24.122C67.911 24.074 67.623 23.948 67.407 23.744C67.191 23.528 67.083 23.27 67.083 22.97C67.083 22.802 67.131 22.604 67.227 22.376C67.431 21.944 67.809 21.608 68.361 21.368C68.913 21.128 69.537 21.008 70.233 21.008C71.193 21.008 72.063 21.236 72.843 21.692C73.635 22.136 74.121 22.784 74.301 23.636C74.397 24.176 74.445 25.496 74.445 27.596C74.445 27.98 74.529 28.34 74.697 28.676C74.721 28.748 74.733 28.796 74.733 28.82C74.733 28.94 74.655 29 74.499 29L72.645 28.982C72.453 28.982 72.285 28.91 72.141 28.766C71.997 28.622 71.925 28.448 71.925 28.244C71.301 28.868 70.545 29.18 69.657 29.18H69.585ZM71.709 24.716C71.541 24.872 71.253 25.034 70.845 25.202C70.449 25.37 70.131 25.568 69.891 25.796C69.651 26.024 69.531 26.348 69.531 26.768C69.531 27.116 69.639 27.44 69.855 27.74C70.083 28.04 70.347 28.19 70.647 28.19H70.719C71.391 28.13 71.727 27.278 71.727 25.634C71.727 25.214 71.721 24.908 71.709 24.716ZM83.5417 20.504V21.062C84.1177 21.062 84.7057 21.026 85.3057 20.954C85.4137 20.954 85.4677 21.008 85.4677 21.116V21.998C85.4677 22.106 85.4137 22.16 85.3057 22.16C84.7777 22.1 84.1837 22.058 83.5237 22.034C83.5237 22.622 83.5237 23.234 83.5237 23.87C83.5357 24.506 83.5477 25.208 83.5597 25.976C83.5717 26.732 83.5777 27.344 83.5777 27.812C83.6017 28.124 83.6797 28.412 83.8117 28.676C83.8357 28.724 83.8477 28.766 83.8477 28.802C83.8477 28.934 83.7757 29 83.6317 29H81.0937C80.9497 29 80.8777 28.934 80.8777 28.802C80.8777 28.766 80.8897 28.724 80.9137 28.676C81.0457 28.412 81.1237 28.124 81.1477 27.812C81.1477 27.272 81.1297 26.366 81.0937 25.094C81.0697 23.81 81.0577 22.808 81.0577 22.088C80.6737 22.112 80.3797 22.136 80.1757 22.16C80.0797 22.16 80.0317 22.106 80.0317 21.998V21.116C80.0317 21.008 80.0797 20.954 80.1757 20.954C80.3797 20.978 80.6737 21.002 81.0577 21.026V20.63C81.0577 19.526 81.4117 18.686 82.1197 18.11C82.8397 17.534 83.6857 17.246 84.6577 17.246C85.2697 17.246 85.8277 17.366 86.3317 17.606C86.8357 17.846 87.1957 18.182 87.4117 18.614C87.5077 18.842 87.5557 19.046 87.5557 19.226C87.5557 19.526 87.4477 19.778 87.2317 19.982C87.0157 20.186 86.7277 20.312 86.3677 20.36C86.3077 20.372 86.2237 20.378 86.1157 20.378C85.7077 20.378 85.3777 20.288 85.1257 20.108C84.8857 19.952 84.7657 19.784 84.7657 19.604C84.7657 19.544 84.7777 19.484 84.8017 19.424C84.8377 19.352 84.8797 19.268 84.9277 19.172C84.9757 19.064 85.0117 18.98 85.0357 18.92C85.0597 18.872 85.0717 18.794 85.0717 18.686C85.0717 18.542 85.0237 18.416 84.9277 18.308C84.8317 18.2 84.7117 18.146 84.5677 18.146C84.3157 18.146 84.0877 18.338 83.8837 18.722C83.6797 19.094 83.5657 19.688 83.5417 20.504ZM87.594 21.926C88.326 21.314 89.328 21.008 90.6 21.008C91.464 21.008 92.184 21.206 92.76 21.602C93.348 21.986 93.642 22.568 93.642 23.348V23.42C93.63 23.72 93.564 23.978 93.444 24.194C93.336 24.41 93.216 24.584 93.084 24.716C92.952 24.836 92.736 24.95 92.436 25.058C92.148 25.166 91.92 25.238 91.752 25.274C91.596 25.31 91.326 25.364 90.942 25.436C90.126 25.604 89.604 25.892 89.376 26.3C89.496 26.708 89.712 27.038 90.024 27.29C90.348 27.53 90.708 27.65 91.104 27.65C91.776 27.65 92.352 27.308 92.832 26.624C92.868 26.576 92.91 26.516 92.958 26.444C93.006 26.36 93.042 26.3 93.066 26.264C93.102 26.216 93.138 26.18 93.174 26.156C93.21 26.12 93.252 26.102 93.3 26.102H93.318C93.462 26.114 93.534 26.27 93.534 26.57C93.534 26.642 93.522 26.762 93.498 26.93C93.354 27.638 92.988 28.19 92.4 28.586C91.824 28.982 91.152 29.18 90.384 29.18C89.52 29.18 88.71 28.928 87.954 28.424C87.21 27.92 86.7 27.206 86.424 26.282C86.28 25.85 86.208 25.4 86.208 24.932C86.208 23.708 86.67 22.706 87.594 21.926ZM89.934 21.998C89.262 22.058 88.926 22.766 88.926 24.122C88.926 24.47 88.956 24.902 89.016 25.418C89.172 25.286 89.448 25.136 89.844 24.968C90.252 24.788 90.564 24.584 90.78 24.356C91.008 24.128 91.122 23.81 91.122 23.402C91.122 23.066 91.014 22.748 90.798 22.448C90.582 22.148 90.324 21.998 90.024 21.998H89.934ZM97.0244 21.314V21.512C97.4924 20.972 98.0744 20.702 98.7704 20.702C99.2144 20.702 99.6284 20.822 100.012 21.062C100.396 21.302 100.696 21.638 100.912 22.07C101.008 22.298 101.056 22.502 101.056 22.682C101.056 22.982 100.948 23.234 100.732 23.438C100.516 23.642 100.228 23.768 99.8684 23.816C99.8084 23.828 99.7244 23.834 99.6164 23.834C99.2084 23.834 98.8784 23.744 98.6264 23.564C98.3864 23.408 98.2664 23.24 98.2664 23.06C98.2664 23 98.2784 22.94 98.3024 22.88C98.3384 22.808 98.3804 22.724 98.4284 22.628C98.4764 22.52 98.5124 22.436 98.5364 22.376C98.5604 22.328 98.5724 22.25 98.5724 22.142C98.5724 21.998 98.5244 21.872 98.4284 21.764C98.3324 21.656 98.2124 21.602 98.0684 21.602C97.8164 21.602 97.5884 21.794 97.3844 22.178C97.1804 22.55 97.0664 23.144 97.0424 23.96V25.076C97.0424 26.288 97.0484 27.2 97.0604 27.812C97.0844 28.124 97.1624 28.412 97.2944 28.676C97.3184 28.724 97.3304 28.766 97.3304 28.802C97.3304 28.934 97.2584 29 97.1144 29H94.5764C94.4324 29 94.3604 28.934 94.3604 28.802C94.3604 28.766 94.3724 28.724 94.3964 28.676C94.5284 28.412 94.6064 28.124 94.6304 27.812L94.5224 22.952C94.5224 22.784 94.4804 22.634 94.3964 22.502C94.3244 22.358 94.2884 22.28 94.2884 22.268L94.2704 22.232V22.196C94.2704 22.04 94.3604 21.944 94.5404 21.908C95.2844 21.74 95.9564 21.428 96.5564 20.972C96.6404 20.912 96.7244 20.882 96.8084 20.882C96.9524 20.882 97.0244 21.026 97.0244 21.314ZM106.569 24.626C106.545 23.642 106.389 22.976 106.101 22.628C105.873 22.364 105.633 22.232 105.381 22.232C105.105 22.232 104.871 22.388 104.679 22.7C104.499 23.012 104.409 23.48 104.409 24.104V27.812C104.433 28.1 104.517 28.388 104.661 28.676C104.673 28.7 104.679 28.742 104.679 28.802C104.679 28.934 104.607 29 104.463 29H101.943C101.787 29 101.709 28.934 101.709 28.802C101.709 28.766 101.721 28.724 101.745 28.676C101.889 28.388 101.973 28.1 101.997 27.812C101.985 27.212 101.967 26.408 101.943 25.4C101.918 24.38 101.901 23.57 101.889 22.97C101.889 22.862 101.877 22.778 101.853 22.718C101.829 22.646 101.793 22.58 101.745 22.52C101.697 22.448 101.667 22.4 101.655 22.376C101.631 22.304 101.619 22.256 101.619 22.232C101.619 22.076 101.715 21.974 101.906 21.926C102.615 21.782 103.287 21.47 103.923 20.99C104.007 20.93 104.085 20.9 104.157 20.9C104.301 20.9 104.373 21.044 104.373 21.332L104.391 22.196C104.835 21.392 105.477 20.99 106.317 20.99C106.809 20.99 107.277 21.14 107.721 21.44C108.165 21.728 108.507 22.118 108.747 22.61C109.239 21.53 109.947 20.99 110.871 20.99H111.033C111.705 21.026 112.299 21.314 112.815 21.854C113.343 22.394 113.613 23.072 113.625 23.888C113.625 26 113.631 27.308 113.643 27.812C113.655 28.1 113.733 28.388 113.877 28.676C113.901 28.724 113.913 28.766 113.913 28.802C113.913 28.934 113.835 29 113.679 29H111.159C111.015 29 110.943 28.934 110.943 28.802C110.943 28.742 110.949 28.7 110.961 28.676C111.105 28.388 111.189 28.1 111.213 27.812C111.213 27.56 111.207 27.032 111.195 26.228C111.183 25.412 111.171 24.878 111.159 24.626C111.135 23.63 110.985 22.964 110.709 22.628C110.469 22.34 110.235 22.196 110.007 22.196C109.731 22.196 109.497 22.376 109.305 22.736C109.113 23.096 109.017 23.48 109.017 23.888C109.017 24.128 109.017 24.782 109.017 25.85C109.029 26.906 109.035 27.56 109.035 27.812C109.059 28.124 109.137 28.412 109.269 28.676C109.293 28.724 109.305 28.766 109.305 28.802C109.305 28.934 109.233 29 109.089 29H106.551C106.407 29 106.335 28.934 106.335 28.802C106.335 28.766 106.347 28.724 106.371 28.676C106.503 28.412 106.581 28.124 106.604 27.812C106.604 26.696 106.593 25.634 106.569 24.626ZM116.158 21.926C116.89 21.314 117.892 21.008 119.164 21.008C120.028 21.008 120.748 21.206 121.324 21.602C121.912 21.986 122.206 22.568 122.206 23.348V23.42C122.194 23.72 122.128 23.978 122.008 24.194C121.9 24.41 121.78 24.584 121.648 24.716C121.516 24.836 121.3 24.95 121 25.058C120.712 25.166 120.484 25.238 120.316 25.274C120.16 25.31 119.89 25.364 119.506 25.436C118.69 25.604 118.168 25.892 117.94 26.3C118.06 26.708 118.276 27.038 118.588 27.29C118.912 27.53 119.272 27.65 119.668 27.65C120.34 27.65 120.916 27.308 121.396 26.624C121.432 26.576 121.474 26.516 121.522 26.444C121.57 26.36 121.606 26.3 121.63 26.264C121.666 26.216 121.702 26.18 121.738 26.156C121.774 26.12 121.816 26.102 121.864 26.102H121.882C122.026 26.114 122.098 26.27 122.098 26.57C122.098 26.642 122.086 26.762 122.062 26.93C121.918 27.638 121.552 28.19 120.964 28.586C120.388 28.982 119.716 29.18 118.948 29.18C118.084 29.18 117.274 28.928 116.518 28.424C115.774 27.92 115.264 27.206 114.988 26.282C114.844 25.85 114.772 25.4 114.772 24.932C114.772 23.708 115.234 22.706 116.158 21.926ZM118.498 21.998C117.826 22.058 117.49 22.766 117.49 24.122C117.49 24.47 117.52 24.902 117.58 25.418C117.736 25.286 118.012 25.136 118.408 24.968C118.816 24.788 119.128 24.584 119.344 24.356C119.572 24.128 119.686 23.81 119.686 23.402C119.686 23.066 119.578 22.748 119.362 22.448C119.146 22.148 118.888 21.998 118.588 21.998H118.498ZM61.024 48.18C60.364 48.156 59.77 47.922 59.242 47.478C58.726 47.022 58.468 46.47 58.468 45.822V45.768C58.48 45.468 58.54 45.21 58.648 44.994C58.768 44.778 58.894 44.61 59.026 44.49C59.158 44.358 59.368 44.238 59.656 44.13C59.956 44.022 60.184 43.95 60.34 43.914C60.496 43.878 60.766 43.824 61.15 43.752C61.87 43.608 62.374 43.428 62.662 43.212C62.962 42.996 63.112 42.702 63.112 42.33V42.258C63.1 41.874 62.944 41.556 62.644 41.304C62.356 41.04 62.02 40.908 61.636 40.908C61.528 40.908 61.444 40.914 61.384 40.926C61.108 40.974 60.97 41.106 60.97 41.322C60.97 41.418 61 41.538 61.06 41.682C61.228 42.102 61.312 42.33 61.312 42.366C61.312 42.534 61.198 42.702 60.97 42.87C60.694 43.05 60.364 43.14 59.98 43.14C59.872 43.14 59.788 43.134 59.728 43.122C59.368 43.074 59.08 42.948 58.864 42.744C58.648 42.54 58.54 42.288 58.54 41.988C58.54 41.808 58.588 41.604 58.684 41.376C58.888 40.944 59.266 40.608 59.818 40.368C60.37 40.128 60.988 40.008 61.672 40.008C62.644 40.008 63.52 40.236 64.3 40.692C65.092 41.148 65.572 41.796 65.74 42.636C65.848 43.26 65.902 44.58 65.902 46.596C65.902 46.992 65.986 47.358 66.154 47.694C66.178 47.766 66.19 47.814 66.19 47.838C66.19 47.946 66.124 48 65.992 48H64.102C63.91 48 63.742 47.928 63.598 47.784C63.454 47.64 63.382 47.466 63.382 47.262C62.758 47.874 62.02 48.18 61.168 48.18H61.024ZM64.048 39.18C64.06 39.192 64.066 39.21 64.066 39.234C64.066 39.306 63.976 39.342 63.796 39.342C63.496 39.342 63.292 39.288 63.184 39.18L60.61 36.66L60.592 36.624C60.592 36.48 60.862 36.408 61.402 36.408C61.918 36.408 62.224 36.492 62.32 36.66L64.048 39.18ZM63.166 43.716C62.998 43.872 62.71 44.04 62.302 44.22C61.894 44.388 61.57 44.586 61.33 44.814C61.102 45.042 60.988 45.366 60.988 45.786C60.988 46.134 61.102 46.458 61.33 46.758C61.558 47.058 61.822 47.208 62.122 47.208H62.176C62.848 47.136 63.184 46.278 63.184 44.634C63.184 44.214 63.178 43.908 63.166 43.716ZM74.2432 36.66L74.2792 46.812C74.3032 47.1 74.3872 47.388 74.5312 47.676C74.5432 47.7 74.5492 47.742 74.5492 47.802C74.5492 47.934 74.4772 48 74.3332 48H71.8132C71.6572 48 71.5792 47.934 71.5792 47.802C71.5792 47.766 71.5912 47.724 71.6152 47.676C71.7592 47.388 71.8372 47.1 71.8492 46.812L71.7592 38.298C71.7592 38.142 71.7172 38.004 71.6332 37.884C71.5612 37.752 71.5192 37.662 71.5072 37.614C71.5072 37.602 71.5012 37.59 71.4892 37.578C71.4892 37.566 71.4892 37.554 71.4892 37.542C71.4892 37.386 71.5852 37.29 71.7772 37.254C72.4732 37.122 73.1452 36.816 73.7932 36.336C73.9012 36.264 73.9852 36.228 74.0452 36.228C74.1772 36.228 74.2432 36.372 74.2432 36.66ZM75.469 35.814C75.697 35.598 75.967 35.49 76.279 35.49C76.591 35.49 76.861 35.598 77.089 35.814C77.317 36.03 77.431 36.288 77.431 36.588C77.431 37.068 77.293 37.578 77.017 38.118C76.741 38.646 76.393 38.994 75.973 39.162C75.901 39.186 75.847 39.198 75.811 39.198C75.727 39.198 75.685 39.168 75.685 39.108C75.685 39.072 75.703 39.018 75.739 38.946C75.919 38.646 76.009 38.316 76.009 37.956C76.009 37.824 76.003 37.722 75.991 37.65C75.751 37.59 75.547 37.464 75.379 37.272C75.223 37.068 75.145 36.84 75.145 36.588C75.145 36.288 75.253 36.03 75.469 35.814ZM80.7471 48.18C80.0871 48.156 79.4931 47.916 78.9651 47.46C78.4371 47.004 78.1731 46.458 78.1731 45.822V45.768C78.1851 45.468 78.2511 45.21 78.3711 44.994C78.4911 44.766 78.6111 44.592 78.7311 44.472C78.8511 44.352 79.0611 44.238 79.3611 44.13C79.6731 44.022 79.9011 43.95 80.0451 43.914C80.1891 43.878 80.4651 43.818 80.8731 43.734C81.6051 43.578 82.1151 43.392 82.4031 43.176C82.6911 42.96 82.8351 42.66 82.8351 42.276V42.24C82.8231 41.856 82.6671 41.538 82.3671 41.286C82.0671 41.022 81.7251 40.89 81.3411 40.89C81.2331 40.89 81.1491 40.896 81.0891 40.908C80.8131 40.956 80.6751 41.088 80.6751 41.304C80.6751 41.4 80.7051 41.52 80.7651 41.664C80.7891 41.724 80.8251 41.808 80.8731 41.916C80.9211 42.012 80.9571 42.096 80.9811 42.168C81.0171 42.24 81.0351 42.306 81.0351 42.366C81.0351 42.546 80.9151 42.714 80.6751 42.87C80.3991 43.05 80.0631 43.14 79.6671 43.14C79.5591 43.14 79.4811 43.134 79.4331 43.122C79.0731 43.074 78.7851 42.948 78.5691 42.744C78.3531 42.528 78.2451 42.27 78.2451 41.97C78.2451 41.802 78.2931 41.604 78.3891 41.376C78.5931 40.944 78.9711 40.608 79.5231 40.368C80.0751 40.128 80.6991 40.008 81.3951 40.008C82.3551 40.008 83.2251 40.236 84.0051 40.692C84.7971 41.136 85.2831 41.784 85.4631 42.636C85.5591 43.176 85.6071 44.496 85.6071 46.596C85.6071 46.98 85.6911 47.34 85.8591 47.676C85.8831 47.748 85.8951 47.796 85.8951 47.82C85.8951 47.94 85.8171 48 85.6611 48L83.8071 47.982C83.6151 47.982 83.4471 47.91 83.3031 47.766C83.1591 47.622 83.0871 47.448 83.0871 47.244C82.4631 47.868 81.7071 48.18 80.8191 48.18H80.7471ZM82.8711 43.716C82.7031 43.872 82.4151 44.034 82.0071 44.202C81.6111 44.37 81.2931 44.568 81.0531 44.796C80.8131 45.024 80.6931 45.348 80.6931 45.768C80.6931 46.116 80.8011 46.44 81.0171 46.74C81.2451 47.04 81.5091 47.19 81.8091 47.19H81.8811C82.5531 47.13 82.8891 46.278 82.8891 44.634C82.8891 44.214 82.8831 43.908 82.8711 43.716ZM89.2549 40.314V40.512C89.7229 39.972 90.3049 39.702 91.0009 39.702C91.4449 39.702 91.8589 39.822 92.2429 40.062C92.6269 40.302 92.9269 40.638 93.1429 41.07C93.2389 41.298 93.2869 41.502 93.2869 41.682C93.2869 41.982 93.1789 42.234 92.9629 42.438C92.7469 42.642 92.4589 42.768 92.0989 42.816C92.0389 42.828 91.9549 42.834 91.8469 42.834C91.4389 42.834 91.1089 42.744 90.8569 42.564C90.6169 42.408 90.4969 42.24 90.4969 42.06C90.4969 42 90.5089 41.94 90.5329 41.88C90.5689 41.808 90.6109 41.724 90.6589 41.628C90.7069 41.52 90.7429 41.436 90.7669 41.376C90.7909 41.328 90.8029 41.25 90.8029 41.142C90.8029 40.998 90.7549 40.872 90.6589 40.764C90.5629 40.656 90.4429 40.602 90.2989 40.602C90.0469 40.602 89.8189 40.794 89.6149 41.178C89.4109 41.55 89.2969 42.144 89.2729 42.96V44.076C89.2729 45.288 89.2789 46.2 89.2909 46.812C89.3149 47.124 89.3929 47.412 89.5249 47.676C89.5489 47.724 89.5609 47.766 89.5609 47.802C89.5609 47.934 89.4889 48 89.3449 48H86.8069C86.6629 48 86.5909 47.934 86.5909 47.802C86.5909 47.766 86.6029 47.724 86.6269 47.676C86.7589 47.412 86.8369 47.124 86.8609 46.812L86.7529 41.952C86.7529 41.784 86.7109 41.634 86.6269 41.502C86.5549 41.358 86.5189 41.28 86.5189 41.268L86.5009 41.232V41.196C86.5009 41.04 86.5909 40.944 86.7709 40.908C87.5149 40.74 88.1869 40.428 88.7869 39.972C88.8709 39.912 88.9549 39.882 89.0389 39.882C89.1829 39.882 89.2549 40.026 89.2549 40.314ZM98.799 43.626C98.775 42.642 98.619 41.976 98.331 41.628C98.103 41.364 97.863 41.232 97.611 41.232C97.335 41.232 97.101 41.388 96.909 41.7C96.729 42.012 96.639 42.48 96.639 43.104V46.812C96.663 47.1 96.747 47.388 96.891 47.676C96.903 47.7 96.909 47.742 96.909 47.802C96.909 47.934 96.837 48 96.693 48H94.173C94.017 48 93.939 47.934 93.939 47.802C93.939 47.766 93.951 47.724 93.975 47.676C94.119 47.388 94.203 47.1 94.227 46.812C94.215 46.212 94.197 45.408 94.173 44.4C94.149 43.38 94.131 42.57 94.119 41.97C94.119 41.862 94.107 41.778 94.083 41.718C94.059 41.646 94.023 41.58 93.975 41.52C93.927 41.448 93.897 41.4 93.885 41.376C93.861 41.304 93.849 41.256 93.849 41.232C93.849 41.076 93.945 40.974 94.137 40.926C94.845 40.782 95.517 40.47 96.153 39.99C96.237 39.93 96.315 39.9 96.387 39.9C96.531 39.9 96.603 40.044 96.603 40.332L96.621 41.196C97.065 40.392 97.707 39.99 98.547 39.99C99.039 39.99 99.507 40.14 99.951 40.44C100.395 40.728 100.737 41.118 100.977 41.61C101.469 40.53 102.177 39.99 103.101 39.99H103.263C103.935 40.026 104.529 40.314 105.045 40.854C105.573 41.394 105.843 42.072 105.855 42.888C105.855 45 105.861 46.308 105.873 46.812C105.885 47.1 105.963 47.388 106.107 47.676C106.131 47.724 106.143 47.766 106.143 47.802C106.143 47.934 106.065 48 105.909 48H103.389C103.245 48 103.173 47.934 103.173 47.802C103.173 47.742 103.179 47.7 103.191 47.676C103.335 47.388 103.419 47.1 103.443 46.812C103.443 46.56 103.437 46.032 103.425 45.228C103.413 44.412 103.401 43.878 103.389 43.626C103.365 42.63 103.215 41.964 102.939 41.628C102.699 41.34 102.465 41.196 102.237 41.196C101.961 41.196 101.727 41.376 101.535 41.736C101.343 42.096 101.247 42.48 101.247 42.888C101.247 43.128 101.247 43.782 101.247 44.85C101.259 45.906 101.265 46.56 101.265 46.812C101.289 47.124 101.367 47.412 101.499 47.676C101.523 47.724 101.535 47.766 101.535 47.802C101.535 47.934 101.463 48 101.319 48H98.781C98.637 48 98.565 47.934 98.565 47.802C98.565 47.766 98.577 47.724 98.601 47.676C98.733 47.412 98.811 47.124 98.835 46.812C98.835 45.696 98.823 44.634 98.799 43.626ZM109.523 44.238C109.523 45.222 109.673 45.888 109.973 46.236C110.201 46.5 110.447 46.632 110.711 46.632C110.987 46.632 111.215 46.482 111.395 46.182C111.587 45.87 111.683 45.42 111.683 44.832V44.778L111.629 41.934C111.629 41.814 111.611 41.712 111.575 41.628C111.551 41.544 111.515 41.472 111.467 41.412C111.431 41.34 111.407 41.292 111.395 41.268V41.196C111.395 41.04 111.479 40.938 111.647 40.89C112.079 40.818 112.757 40.512 113.681 39.972C113.765 39.912 113.849 39.882 113.933 39.882C114.065 39.882 114.131 40.02 114.131 40.296V46.596C114.131 46.98 114.215 47.34 114.383 47.676C114.407 47.724 114.419 47.766 114.419 47.802C114.419 47.934 114.353 48 114.221 48H112.385C112.205 48 112.049 47.928 111.917 47.784C111.785 47.64 111.719 47.406 111.719 47.082V46.65C111.215 47.478 110.549 47.892 109.721 47.892C109.025 47.892 108.407 47.61 107.867 47.046C107.339 46.482 107.069 45.798 107.057 44.994C107.057 44.694 107.051 44.376 107.039 44.04C107.039 43.692 107.033 43.314 107.021 42.906C107.009 42.486 107.003 42.162 107.003 41.934C107.003 41.814 106.985 41.712 106.949 41.628C106.925 41.544 106.889 41.472 106.841 41.412C106.805 41.34 106.781 41.292 106.769 41.268L106.751 41.232V41.196C106.751 41.028 106.841 40.926 107.021 40.89C107.513 40.866 108.191 40.56 109.055 39.972C109.151 39.912 109.235 39.882 109.307 39.882C109.439 39.882 109.505 40.02 109.505 40.296V42.276C109.505 43.152 109.511 43.806 109.523 44.238ZM117.784 40.314V40.512C118.252 39.972 118.834 39.702 119.53 39.702C119.974 39.702 120.388 39.822 120.772 40.062C121.156 40.302 121.456 40.638 121.672 41.07C121.768 41.298 121.816 41.502 121.816 41.682C121.816 41.982 121.708 42.234 121.492 42.438C121.276 42.642 120.988 42.768 120.628 42.816C120.568 42.828 120.484 42.834 120.376 42.834C119.968 42.834 119.638 42.744 119.386 42.564C119.146 42.408 119.026 42.24 119.026 42.06C119.026 42 119.038 41.94 119.062 41.88C119.098 41.808 119.14 41.724 119.188 41.628C119.236 41.52 119.272 41.436 119.296 41.376C119.32 41.328 119.332 41.25 119.332 41.142C119.332 40.998 119.284 40.872 119.188 40.764C119.092 40.656 118.972 40.602 118.828 40.602C118.576 40.602 118.348 40.794 118.144 41.178C117.94 41.55 117.826 42.144 117.802 42.96V44.076C117.802 45.288 117.808 46.2 117.82 46.812C117.844 47.124 117.922 47.412 118.054 47.676C118.078 47.724 118.09 47.766 118.09 47.802C118.09 47.934 118.018 48 117.874 48H115.336C115.192 48 115.12 47.934 115.12 47.802C115.12 47.766 115.132 47.724 115.156 47.676C115.288 47.412 115.366 47.124 115.39 46.812L115.282 41.952C115.282 41.784 115.24 41.634 115.156 41.502C115.084 41.358 115.048 41.28 115.048 41.268L115.03 41.232V41.196C115.03 41.04 115.12 40.944 115.3 40.908C116.044 40.74 116.716 40.428 117.316 39.972C117.4 39.912 117.484 39.882 117.568 39.882C117.712 39.882 117.784 40.026 117.784 40.314ZM123.647 40.926C124.379 40.314 125.381 40.008 126.653 40.008C127.517 40.008 128.237 40.206 128.813 40.602C129.401 40.986 129.695 41.568 129.695 42.348V42.42C129.683 42.72 129.617 42.978 129.497 43.194C129.389 43.41 129.269 43.584 129.137 43.716C129.005 43.836 128.789 43.95 128.489 44.058C128.201 44.166 127.973 44.238 127.805 44.274C127.649 44.31 127.379 44.364 126.995 44.436C126.179 44.604 125.657 44.892 125.429 45.3C125.549 45.708 125.765 46.038 126.077 46.29C126.401 46.53 126.761 46.65 127.157 46.65C127.829 46.65 128.405 46.308 128.885 45.624C128.921 45.576 128.963 45.516 129.011 45.444C129.059 45.36 129.095 45.3 129.119 45.264C129.155 45.216 129.191 45.18 129.227 45.156C129.263 45.12 129.305 45.102 129.353 45.102H129.371C129.515 45.114 129.587 45.27 129.587 45.57C129.587 45.642 129.575 45.762 129.551 45.93C129.407 46.638 129.041 47.19 128.453 47.586C127.877 47.982 127.205 48.18 126.437 48.18C125.573 48.18 124.763 47.928 124.007 47.424C123.263 46.92 122.753 46.206 122.477 45.282C122.333 44.85 122.261 44.4 122.261 43.932C122.261 42.708 122.723 41.706 123.647 40.926ZM125.987 40.998C125.315 41.058 124.979 41.766 124.979 43.122C124.979 43.47 125.009 43.902 125.069 44.418C125.225 44.286 125.501 44.136 125.897 43.968C126.305 43.788 126.617 43.584 126.833 43.356C127.061 43.128 127.175 42.81 127.175 42.402C127.175 42.066 127.067 41.748 126.851 41.448C126.635 41.148 126.377 40.998 126.077 40.998H125.987Z" fill="#89513F"/>
</svg>
